<?xml version="1.0" standalone="no"?>
<!DOCTYPE svg PUBLIC "-//W3C//DTD SVG 20010904//EN"
 "http://www.w3.org/TR/2001/REC-SVG-20010904/DTD/svg10.dtd">
<svg version="1.0" xmlns="http://www.w3.org/2000/svg"
 width="240.000000pt" height="90.000000pt" viewBox="0 0 240.000000 90.000000"
 preserveAspectRatio="xMidYMid meet">

<g transform="translate(0.000000,90.000000) scale(0.100000,-0.100000)"
fill="#000000" stroke="none">
<path d="M1256 829 c-18 -14 -28 -36 -37 -79 -6 -33 -15 -60 -20 -60 -4 0 -17
-25 -28 -55 -12 -31 -32 -79 -46 -108 -25 -50 -18 -46 27 15 l16 23 11 -27
c13 -36 45 -52 71 -38 17 9 20 21 20 69 0 55 3 63 46 115 42 52 64 68 64 47 0
-8 -32 -53 -56 -78 -6 -7 -10 -36 -9 -67 l3 -54 -80 -74 c-77 -70 -101 -85
-142 -87 -16 -1 -17 4 -12 35 4 19 9 43 12 52 3 9 -7 -3 -22 -27 l-28 -44 -8
28 c-6 24 -1 37 27 77 19 26 35 55 35 63 0 30 -74 47 -98 23 -7 -7 -42 -28
-79 -48 -73 -38 -99 -70 -81 -103 8 -16 18 -19 62 -15 l52 4 -4 -76 c-5 -87 4
-112 49 -135 27 -14 33 -14 65 1 33 16 37 16 67 -1 27 -14 39 -15 75 -6 23 7
57 25 76 41 18 17 42 30 52 30 28 0 132 -45 163 -69 26 -21 26 -21 6 -36 -66
-48 -66 -47 15 -42 121 8 162 38 114 82 -34 32 -137 89 -189 105 -46 14 -66
30 -47 37 19 7 70 86 72 113 4 41 1 50 -15 50 -8 0 -15 5 -15 11 0 7 -10 5
-26 -6 -23 -15 -66 -14 -51 2 4 3 2 12 -4 20 -8 9 -8 13 -1 13 10 0 39 17 103
61 20 14 14 60 -7 52 -8 -3 -21 0 -29 7 -13 10 -11 18 10 54 30 52 32 82 5 91
-22 7 -25 6 -98 -43 -28 -19 -55 -33 -58 -29 -3 3 1 20 10 38 9 18 16 38 16
44 0 23 -28 24 -54 4z m144 -364 c0 -13 -34 -71 -53 -92 -19 -22 -58 -23 -80
-3 -11 9 30 58 67 81 29 18 66 25 66 14z m-176 -150 c20 -8 36 -17 36 -19 0
-3 -15 -14 -34 -25 -33 -21 -89 -21 -102 0 -3 5 -11 9 -17 9 -7 0 -3 -7 7 -15
15 -12 17 -18 8 -27 -16 -16 -23 -7 -29 40 -4 33 -2 41 13 45 38 10 83 7 118
-8z"/>
<path d="M1900 810 c-11 -11 -20 -24 -20 -30 0 -9 61 -30 88 -30 22 0 12 -13
-95 -124 -56 -58 -107 -114 -112 -124 -7 -13 -7 -31 0 -55 15 -54 46 -58 182
-20 35 9 15 -17 -73 -93 -52 -46 -90 -87 -90 -97 0 -11 8 -32 17 -48 25 -41
61 -38 126 10 106 80 170 93 159 32 -5 -29 -78 -104 -93 -96 -5 3 -6 -1 -3 -9
3 -9 12 -16 20 -16 25 0 149 72 169 98 11 15 30 35 42 46 28 24 30 65 5 96
-16 20 -27 22 -90 22 -64 -1 -78 -5 -118 -31 -52 -36 -65 -39 -39 -11 10 11
23 20 30 20 14 0 102 91 130 133 l18 29 -28 24 c-15 13 -31 24 -34 24 -3 0
-53 -7 -111 -15 -58 -8 -109 -15 -113 -15 -21 -1 23 48 106 117 51 42 95 81
99 87 14 21 8 47 -17 71 -32 33 -124 36 -155 5z"/>
<path d="M965 779 c-4 -6 -2 -31 5 -55 12 -41 11 -46 -9 -68 -27 -29 -27 -41
1 -22 14 10 44 16 79 16 57 0 58 1 69 35 13 40 4 64 -34 89 -28 18 -101 22
-111 5z"/>
<path d="M494 765 c-33 -7 -84 -23 -112 -35 -28 -12 -58 -20 -66 -17 -21 8
-38 -17 -34 -49 4 -39 54 -55 120 -38 26 7 53 16 58 19 16 10 -38 -66 -74
-105 -18 -19 -57 -64 -87 -100 -29 -36 -96 -109 -147 -162 -94 -97 -95 -98
-78 -123 28 -43 51 -32 156 74 195 196 304 274 358 255 25 -9 27 -13 24 -59
-7 -85 -90 -186 -132 -160 -7 4 -10 18 -7 31 2 14 -1 25 -10 28 -24 10 -33 7
-33 -9 0 -8 -4 -15 -8 -15 -13 0 -12 -43 4 -95 10 -37 22 -56 43 -68 16 -9 32
-17 35 -17 12 0 86 73 86 84 0 7 14 34 31 60 41 61 89 180 89 217 0 18 -10 40
-25 54 -34 35 -95 34 -169 -4 -31 -15 -55 -25 -54 -21 2 4 32 39 67 79 95 106
117 146 89 168 -24 19 -63 21 -124 8z"/>
</g>
</svg>
